<svg width="12" height="12" viewBox="0 0 12 12" fill="none" xmlns="http://www.w3.org/2000/svg">
  <path
    d="M9.625 6.25H7.125C6.645 6.25 6.25 6.645 6.25 7.125C6.25 7.605 6.645 8 7.125 8H9.625C10.105 8 10.5 7.605 10.5 7.125C10.5 6.645 10.105 6.25 9.625 6.25Z"
    fill="black" />
  <path
    d="M7.25 8.5H6.25V9.5C6.25 10.05 6.7 10.5 7.25 10.5C7.8 10.5 8.25 10.05 8.25 9.5C8.25 8.95 7.8 8.5 7.25 8.5Z"
    fill="black" />
  <path
    d="M7.125 5.75C7.605 5.75 8 5.355 8 4.875V2.375C8 1.895 7.605 1.5 7.125 1.5C6.645 1.5 6.25 1.895 6.25 2.375V4.875C6.25 5.355 6.645 5.75 7.125 5.75Z"
    fill="black" />
  <path
    d="M10.5 4.75C10.5 4.2 10.05 3.75 9.5 3.75C8.95 3.75 8.5 4.2 8.5 4.75V5.75H9.5C10.05 5.75 10.5 5.3 10.5 4.75Z"
    fill="black" />
  <path
    d="M4.875 4H2.375C1.895 4 1.5 4.395 1.5 4.875C1.5 5.355 1.895 5.75 2.375 5.75H4.875C5.355 5.75 5.75 5.355 5.75 4.875C5.75 4.395 5.355 4 4.875 4Z"
    fill="black" />
  <path
    d="M4.75 1.5C4.2 1.5 3.75 1.95 3.75 2.5C3.75 3.05 4.2 3.5 4.75 3.5H5.75V2.5C5.75 1.95 5.3 1.5 4.75 1.5Z"
    fill="black" />
  <path
    d="M4.875 6.25C4.395 6.25 4 6.645 4 7.125V9.625C4 10.105 4.395 10.5 4.875 10.5C5.355 10.5 5.75 10.105 5.75 9.625V7.125C5.75 6.645 5.355 6.25 4.875 6.25Z"
    fill="black" />
  <path
    d="M1.5 7.25C1.5 7.8 1.95 8.25 2.5 8.25C3.05 8.25 3.5 7.8 3.5 7.25V6.25H2.5C1.95 6.25 1.5 6.7 1.5 7.25Z"
    fill="black" />
</svg>